<?xml version="1.0" standalone="no"?>
<!DOCTYPE svg PUBLIC "-//W3C//DTD SVG 20010904//EN"
 "http://www.w3.org/TR/2001/REC-SVG-20010904/DTD/svg10.dtd">
<svg version="1.0" xmlns="http://www.w3.org/2000/svg"
 width="512.000000pt" height="512.000000pt" viewBox="0 0 512.000000 512.000000"
 preserveAspectRatio="xMidYMid meet">
<metadata>
Created by potrace 1.14, written by Peter Selinger 2001-2017
</metadata>
<g transform="translate(0.000000,512.000000) scale(0.100000,-0.100000)"
fill="#000000" stroke="none">
<path d="M38 5098 c2 -10 1 -18 -4 -17 -5 1 -15 1 -21 0 -10 -1 -13 -516 -13
-2541 l0 -2540 800 0 c440 0 800 3 800 7 0 3 -27 49 -61 101 -33 52 -57 98
-52 102 4 5 29 11 54 15 45 7 47 6 57 -22 6 -15 11 -20 11 -11 1 9 4 18 9 21
4 2 1 2 -5 1 -7 -2 -13 0 -13 5 0 14 28 33 40 26 5 -3 10 -1 10 5 0 6 8 10 18
9 9 -1 20 0 25 1 15 5 27 8 43 9 10 1 14 7 10 17 -5 12 1 15 27 12 20 -2 37 3
44 12 10 12 11 11 7 -10 -5 -25 -5 -25 11 -5 9 11 21 19 26 18 5 -2 9 5 9 14
0 15 2 14 16 -3 8 -10 12 -13 8 -5 -5 11 -2 13 14 9 16 -5 19 -2 15 11 -6 14
-4 14 14 -2 21 -18 38 -23 29 -8 -3 5 1 11 9 15 21 8 19 27 -2 19 -12 -4 -11
0 5 11 12 10 31 18 42 19 11 1 20 5 20 9 0 4 7 8 15 8 18 0 87 38 97 54 5 7 8
7 8 1 0 -6 13 -12 29 -13 24 -2 30 2 33 23 3 14 1 28 -4 31 -5 3 -7 12 -4 20
6 17 -42 64 -66 64 -9 0 -19 4 -22 8 -3 5 -19 7 -35 4 -26 -3 -31 0 -36 21 -8
29 -35 44 -47 25 -6 -10 -8 -10 -8 1 0 7 -6 11 -14 8 -10 -4 -12 0 -9 14 3 10
10 19 17 19 6 0 4 5 -4 10 -8 5 -24 7 -35 4 -29 -6 -44 8 -48 44 -2 18 -7 32
-12 31 -12 -1 -25 23 -25 49 0 23 6 25 68 25 20 -1 31 4 29 11 -3 6 -11 9 -18
7 -8 -2 -21 -3 -29 -2 -8 1 -27 3 -41 3 -20 2 -25 7 -21 20 2 10 8 18 12 18 4
0 15 11 24 25 11 17 13 24 4 23 -7 -2 -13 8 -15 22 -1 14 0 17 3 7 3 -9 9 -15
14 -12 5 3 11 -4 15 -15 3 -11 13 -20 21 -20 8 0 13 -3 12 -8 0 -4 2 -15 7
-25 6 -15 10 -15 23 -5 13 11 15 10 9 -6 -6 -14 -4 -17 9 -12 8 3 20 6 25 6 4
0 6 7 3 15 -4 9 -1 15 7 15 8 0 15 -12 16 -26 0 -15 7 -30 15 -35 10 -6 10 -9
1 -9 -7 0 -13 -4 -13 -9 0 -5 11 -8 25 -5 16 3 32 -3 44 -15 13 -13 29 -18 43
-16 13 3 37 1 53 -5 17 -5 74 -14 128 -20 80 -8 102 -8 118 3 10 8 16 17 12
20 -3 4 -1 7 4 7 6 0 14 -6 17 -12 3 -7 3 2 0 19 -5 28 -3 32 11 27 9 -4 14
-13 11 -21 -3 -8 -1 -11 4 -8 6 3 10 17 10 31 0 13 5 24 11 24 5 0 7 5 4 10
-4 6 -11 7 -17 4 -6 -4 -8 2 -3 17 4 16 3 19 -3 11 -5 -7 -13 -12 -18 -11 -22
4 -44 -2 -44 -12 0 -5 4 -7 10 -4 13 8 13 -26 -1 -45 -8 -11 -12 -12 -16 -2
-2 6 -9 10 -14 6 -8 -5 -13 10 -10 30 1 5 -5 6 -13 3 -9 -4 -18 -1 -22 5 -4 7
-3 8 4 4 7 -4 12 -1 12 8 0 9 5 16 10 16 6 0 10 -4 10 -10 0 -5 5 -10 10 -10
6 0 3 11 -6 25 -9 14 -20 22 -25 19 -5 -3 -9 -1 -9 4 0 6 -6 12 -13 15 -10 4
-13 -5 -12 -30 0 -19 -5 -39 -12 -45 -9 -7 -13 -7 -13 2 0 7 -7 10 -15 7 -8
-4 -17 -1 -21 5 -4 7 -3 8 4 4 7 -4 12 -2 12 4 0 6 4 9 9 5 6 -3 15 4 21 15 7
13 7 20 0 20 -5 0 -10 -6 -11 -12 0 -7 -4 -3 -9 10 -5 12 -7 30 -4 40 4 11 -1
9 -15 -8 -12 -14 -20 -19 -19 -12 2 7 -15 23 -37 35 l-41 22 24 22 c20 18 27
19 46 9 13 -6 40 -11 60 -11 20 1 36 -3 36 -8 0 -5 7 -4 15 3 12 10 16 9 21
-4 4 -11 13 -15 26 -10 11 3 27 0 36 -8 35 -27 62 -39 62 -26 0 6 9 2 21 -10
20 -22 46 -21 33 0 -5 7 -2 9 8 5 27 -10 96 14 113 39 9 14 21 21 30 18 8 -4
15 -1 15 5 0 6 7 8 15 5 23 -9 65 5 65 21 0 9 -9 15 -23 15 -13 0 -32 7 -43
15 -10 8 -30 15 -44 15 -16 0 -29 8 -35 22 -10 24 -54 32 -67 13 -4 -6 -13 -2
-21 9 -8 11 -21 17 -29 13 -11 -4 -15 1 -15 18 0 13 6 26 13 29 8 3 14 13 14
21 0 9 4 14 8 11 4 -2 9 7 10 22 l2 27 -30 -32 c-16 -18 -30 -37 -30 -42 0
-10 -12 -14 -70 -24 -14 -2 -33 -8 -42 -12 -13 -5 -18 -3 -18 8 0 8 -7 20 -15
27 -8 6 -13 16 -12 22 1 5 -11 12 -28 14 -16 2 -39 5 -50 8 -11 2 -26 5 -32 5
-19 1 -16 22 5 37 16 13 16 13 0 14 -10 0 -18 5 -18 10 0 6 -5 10 -12 10 -6 0
-20 8 -30 17 -18 16 -21 16 -47 0 -38 -22 -69 -23 -51 -2 10 12 7 17 -16 26
-16 7 -49 21 -73 31 -25 11 -54 17 -67 14 -12 -3 -26 -1 -29 4 -4 6 -11 8 -16
4 -6 -3 -13 3 -16 15 -3 12 -13 21 -24 21 -19 0 -35 17 -25 27 4 4 12 1 18 -5
7 -7 23 -12 37 -12 20 0 23 2 11 10 -12 8 -12 10 3 16 9 3 14 11 10 18 -3 6 3
3 14 -7 21 -18 22 -18 45 5 13 13 26 22 30 21 5 -2 8 2 8 7 0 6 7 10 15 10 8
0 24 9 35 20 11 11 26 20 34 20 8 0 17 7 20 16 3 8 10 13 15 9 5 -3 11 5 13
17 2 13 9 22 16 21 6 -2 12 1 12 6 0 9 38 24 54 22 5 -1 6 5 3 14 -4 8 -2 15
4 15 5 0 20 9 32 21 17 16 30 19 57 14 43 -8 40 -5 46 -51 9 -66 26 -124 35
-118 5 3 9 1 9 -5 0 -5 -6 -11 -13 -14 -6 -2 -2 -2 10 -1 15 3 24 -2 28 -16 3
-11 17 -23 31 -26 13 -3 24 -12 24 -20 0 -17 12 -18 28 -2 9 9 12 9 12 1 0 -7
-5 -15 -10 -18 -8 -5 -7 -11 1 -21 9 -11 8 -14 -5 -14 -10 0 -16 -8 -16 -21 0
-20 1 -21 24 -5 16 10 35 14 54 10 19 -4 39 0 55 11 15 9 30 14 34 12 5 -3 7
10 5 29 -2 19 -7 34 -12 34 -4 0 -12 17 -18 38 -15 50 -51 88 -91 97 -18 4
-43 17 -57 30 -34 32 -20 57 51 90 35 17 64 40 82 65 16 22 36 42 46 46 9 3
29 22 44 42 15 20 38 49 52 65 14 15 25 40 26 55 0 33 29 40 87 22 44 -12 108
3 108 27 0 7 5 13 11 13 5 0 8 -4 5 -9 -3 -5 1 -12 9 -15 24 -9 0 -46 -29 -46
-42 0 -53 -33 -48 -150 2 -58 4 -120 3 -139 0 -32 58 -172 59 -142 0 11 6 10
23 -5 50 -45 155 -87 242 -97 l40 -5 -30 13 c-16 8 -38 14 -47 15 -10 0 -18 4
-18 8 0 13 -68 34 -89 27 -11 -3 -22 -1 -26 5 -3 5 -2 10 4 10 6 0 -15 24 -46
54 -66 65 -94 131 -87 210 5 57 28 129 55 166 20 29 79 66 79 51 0 -6 -5 -11
-10 -11 -6 0 -3 -11 7 -25 10 -13 24 -22 31 -20 6 2 12 -2 12 -10 0 -16 16
-20 24 -6 3 4 29 2 58 -5 28 -8 54 -12 56 -9 3 3 0 5 -6 5 -17 0 -15 14 6 38
11 13 22 18 28 12 10 -10 84 10 84 23 0 4 9 3 20 -3 14 -8 20 -8 20 0 0 7 8 9
19 5 36 -11 61 -14 61 -6 0 9 -80 34 -185 56 -100 21 -116 27 -95 32 9 2 59
-8 110 -22 93 -24 180 -34 152 -16 -8 4 -13 11 -13 15 3 18 -2 24 -36 39 -21
9 -49 27 -63 40 -14 13 -32 21 -39 19 -8 -3 -11 0 -7 7 4 6 2 11 -3 11 -16 0
-13 18 7 38 20 20 49 17 77 -8 29 -25 85 -50 85 -38 0 13 -38 46 -67 58 -13 5
-23 16 -23 24 0 12 7 13 35 5 39 -11 59 -4 51 17 -4 11 5 14 35 14 27 0 38 4
33 11 -4 7 -2 10 5 8 7 -3 12 -8 11 -13 -1 -5 4 -13 12 -17 16 -10 34 -12 25
-2 -4 3 0 15 10 25 13 15 14 18 1 18 -8 0 -20 10 -27 23 -7 12 -22 28 -34 34
-59 30 -93 44 -117 46 -14 2 -30 5 -35 8 -6 3 -25 5 -43 4 -25 -1 -31 2 -27
14 5 12 2 11 -13 -2 -10 -9 -24 -17 -31 -17 -7 0 -22 -5 -33 -11 -15 -8 -17
-13 -8 -19 8 -5 1 -9 -18 -12 -17 -2 -29 -1 -26 4 3 4 0 8 -5 8 -6 0 -11 -4
-11 -9 0 -8 -37 -24 -52 -22 -5 1 -8 -4 -8 -9 0 -6 -6 -10 -14 -10 -7 0 -19
-7 -26 -15 -7 -8 -17 -12 -24 -8 -6 3 -8 3 -4 -1 3 -4 -9 -24 -28 -44 -40 -42
-46 -87 -13 -97 16 -5 18 -10 8 -21 -6 -8 -8 -14 -5 -14 4 0 2 -9 -4 -20 -9
-17 -8 -19 7 -14 15 5 16 4 3 -5 -8 -6 -22 -11 -31 -11 -9 0 -19 -9 -22 -20
-4 -15 -13 -20 -39 -19 -45 0 -123 31 -124 49 0 8 -28 43 -61 77 -58 59 -60
62 -37 67 13 4 24 11 24 17 0 6 5 7 10 4 6 -3 10 1 10 9 0 9 5 16 10 16 6 0
10 7 10 16 0 8 4 13 8 10 5 -3 18 5 28 17 47 56 47 56 33 73 -10 13 -10 17 0
24 9 5 10 10 2 14 -6 4 -15 4 -21 1 -5 -3 -7 0 -4 8 6 16 -22 31 -38 21 -6 -4
-8 -1 -6 7 7 18 -22 69 -39 69 -7 0 -13 7 -13 15 0 9 -8 18 -17 22 -10 3 -32
21 -50 39 -32 34 -53 43 -53 24 0 -5 -5 -10 -11 -10 -5 0 -7 4 -4 10 4 6 -2 7
-16 1 -15 -5 -32 -3 -48 6 -14 7 -37 13 -51 13 -14 0 -36 9 -50 20 -14 11 -35
20 -48 20 -24 0 -68 24 -90 50 -9 9 -11 10 -6 1 5 -10 1 -11 -17 -6 -30 9 -51
32 -68 72 -14 35 -30 35 -66 0 -11 -11 -14 -16 -6 -12 9 5 12 4 7 -3 -10 -16
-33 -15 -39 1 -3 6 -6 3 -6 -9 -1 -12 -11 -26 -23 -33 -19 -9 -19 -11 -3 -6
28 8 -73 -84 -110 -100 -26 -12 -33 -11 -49 3 -11 9 -16 12 -13 5 4 -6 3 -14
-2 -17 -5 -3 -11 1 -15 9 -6 17 -36 21 -36 4 0 -5 5 -7 11 -3 7 4 10 -1 7 -12
-7 -37 -35 -18 -112 74 -73 88 -77 95 -75 138 2 31 7 43 15 40 9 -3 11 1 7 11
-5 12 -2 15 9 11 11 -5 14 0 10 19 -4 24 -3 25 29 18 25 -4 30 -3 19 4 -13 10
-13 11 0 11 13 0 13 1 0 10 -8 5 -10 10 -5 10 6 0 3 4 -5 10 -12 8 -12 10 2
15 9 4 14 13 11 21 -4 12 -8 12 -21 2 -13 -11 -15 -10 -10 3 4 10 1 16 -8 16
-8 0 -14 -4 -14 -9 0 -5 -4 -6 -10 -3 -5 3 -10 0 -10 -7 0 -9 -3 -9 -10 2 -8
13 -14 8 -12 -11 1 -3 -15 -6 -34 -6 -29 0 -33 3 -28 19 4 14 1 16 -12 11 -12
-4 -15 -3 -10 5 4 7 2 12 -3 12 -6 0 -11 -5 -11 -11 0 -6 -6 -9 -12 -6 -7 2
-12 12 -10 22 3 14 -1 16 -17 12 -12 -3 -23 -2 -26 3 -6 10 26 37 50 42 11 2
21 11 23 21 5 23 -31 22 -87 -3 -45 -21 -91 -26 -91 -11 0 5 8 7 18 4 14 -3
17 2 16 31 -1 22 5 43 17 57 22 26 25 41 5 33 -8 -3 -17 -1 -20 5 -4 5 3 12
14 16 11 4 18 11 14 16 -3 5 -10 6 -16 3 -7 -5 -9 -1 -5 9 4 10 1 17 -5 17 -6
0 -8 3 -5 6 4 4 13 1 21 -6 13 -10 19 -9 32 5 16 15 14 16 -22 13 -31 -2 -38
-7 -36 -20 2 -10 -2 -18 -8 -18 -5 0 -10 5 -10 10 0 6 -7 10 -16 10 -23 0 -11
24 14 28 12 2 22 10 22 18 0 8 9 15 20 15 40 3 110 35 110 51 0 9 -3 9 -12 0
-7 -7 -16 -12 -21 -12 -6 0 2 11 16 24 30 28 27 33 -31 42 -28 4 -42 3 -42 -4
0 -6 -6 -9 -13 -7 -7 3 -29 -3 -50 -14 -21 -11 -49 -18 -61 -15 -13 2 -29 -3
-36 -11 -7 -8 -20 -15 -29 -14 -12 0 -11 2 4 9 11 5 16 9 12 9 -4 1 -3 10 4
22 10 19 9 20 -13 14 -16 -4 -19 -3 -9 3 7 5 11 16 9 23 -6 17 75 61 96 53 10
-4 16 -1 16 7 0 14 120 109 138 109 12 0 37 29 30 35 -6 6 -124 -52 -163 -80
-46 -34 -51 -35 -51 -15 0 10 3 18 6 18 21 -2 29 4 23 19 -5 12 -3 14 6 8 10
-6 12 2 9 34 -3 33 0 42 14 47 10 3 16 10 12 15 -3 5 -1 8 4 7 5 -2 18 6 28
18 11 12 29 24 42 28 14 5 21 13 18 21 -3 8 5 16 20 19 13 4 24 13 24 22 0 11
-6 13 -20 9 -28 -9 -26 13 3 26 17 7 12 8 -23 4 -25 -3 -56 -9 -69 -12 l-25
-6 23 31 c22 31 17 44 -7 20 -9 -9 -12 -9 -12 0 0 7 9 20 20 29 14 13 16 19 7
25 -8 5 -4 8 10 8 19 0 98 39 83 41 -59 8 -71 5 -100 -22 -16 -16 -32 -29 -36
-29 -3 0 7 23 22 50 15 28 30 46 34 40 4 -6 15 -1 28 13 21 22 22 25 6 38 -13
11 -18 11 -21 2 -3 -9 -10 -10 -24 -3 -15 9 -19 7 -19 -5 0 -9 -4 -13 -10 -10
-16 10 -12 21 15 46 24 23 34 59 17 59 -14 0 -50 -43 -65 -78 -11 -27 -16 -30
-25 -20 -15 18 21 71 111 162 41 40 66 74 63 82 -3 8 0 14 7 14 13 1 67 45 67
55 0 3 16 20 36 38 54 47 387 217 400 204 4 -3 21 1 38 10 23 12 75 18 196 24
91 4 187 13 213 20 38 9 64 9 115 0 37 -6 101 -14 142 -17 41 -3 102 -7 134
-10 33 -2 63 -9 67 -16 5 -7 11 -9 15 -5 4 4 13 2 20 -4 7 -6 22 -8 34 -4 18
6 19 9 8 22 -11 14 -10 15 10 9 15 -5 22 -3 22 5 0 7 9 3 20 -9 18 -19 38 -27
62 -23 4 0 28 -11 53 -24 35 -20 53 -24 80 -19 22 4 35 2 35 -4 0 -6 -5 -12
-12 -14 -17 -6 0 -28 22 -28 14 0 20 -8 22 -32 2 -27 9 -35 36 -44 19 -6 37
-15 40 -21 4 -6 18 -14 31 -18 16 -5 20 -10 11 -15 -9 -6 -9 -9 0 -15 6 -4 14
-5 17 -2 3 3 16 -7 30 -24 14 -16 31 -29 39 -29 7 0 38 -25 69 -55 30 -30 62
-55 70 -55 9 0 14 -4 11 -8 -9 -15 95 -97 138 -108 40 -11 65 -44 32 -44 -9 0
-16 -6 -16 -13 0 -19 63 -77 83 -77 9 0 17 -4 17 -10 0 -5 6 -10 13 -10 13 0
67 -39 54 -40 -4 0 -21 7 -37 15 -35 18 -37 13 -11 -23 10 -15 30 -49 44 -77
77 -155 96 -196 117 -250 12 -33 31 -80 40 -105 18 -47 21 -203 5 -281 -5 -26
-3 -40 7 -49 12 -12 12 -16 -4 -32 -19 -19 -25 -44 -9 -33 23 13 2 -113 -28
-171 -30 -60 -57 -139 -86 -254 -28 -112 -68 -229 -76 -224 -5 2 -16 -10 -25
-28 -9 -18 -34 -56 -55 -85 -29 -39 -39 -62 -39 -90 0 -27 -3 -34 -10 -23 -11
17 -25 7 -17 -13 5 -13 68 -21 140 -19 15 1 27 -4 27 -11 0 -9 2 -9 8 0 5 8
24 3 65 -16 32 -15 57 -29 56 -32 -5 -6 34 -48 41 -44 3 2 6 -5 6 -16 0 -10
-5 -19 -10 -19 -5 0 -1 -6 9 -14 15 -11 17 -17 7 -28 -9 -11 -9 -17 0 -26 9
-9 9 -12 -2 -12 -13 0 -13 -2 0 -11 11 -8 12 -12 3 -16 -7 -2 -13 -13 -13 -23
0 -10 -9 -22 -21 -25 -11 -4 -18 -9 -15 -12 6 -7 -19 -33 -31 -33 -5 0 -25
-13 -43 -30 -18 -16 -37 -30 -41 -30 -4 0 -15 -8 -25 -17 -10 -10 -21 -19 -26
-19 -4 -1 -12 -2 -18 -3 -5 0 -10 -9 -10 -18 0 -14 -2 -15 -9 -5 -5 9 -8 -2
-7 -30 1 -29 9 -53 24 -72 12 -16 22 -32 22 -35 0 -3 10 -17 23 -31 13 -14 36
-52 51 -85 15 -33 34 -72 41 -87 8 -16 9 -30 4 -34 -5 -3 -9 2 -9 10 0 19 -16
21 -23 4 -4 -10 -6 -9 -6 1 -1 7 -11 22 -23 32 -11 11 -17 19 -13 19 5 0 -3
12 -17 28 -14 15 -35 53 -48 85 -12 31 -26 57 -29 57 -4 0 -14 12 -21 28 -8
15 -23 40 -33 55 -14 21 -17 37 -13 63 7 32 5 36 -26 50 -18 8 -55 32 -82 53
-58 46 -94 67 -102 59 -3 -4 10 -21 30 -40 31 -29 35 -37 28 -66 l-7 -33 -50
50 c-45 46 -75 63 -75 43 0 -4 12 -19 28 -33 15 -14 40 -54 57 -88 l29 -62
-28 -56 c-16 -30 -52 -79 -81 -109 -28 -30 -49 -54 -47 -54 3 0 -1 -7 -8 -15
-7 -8 -18 -15 -24 -15 -6 0 -4 5 4 11 12 8 9 9 -10 4 -14 -4 -36 -9 -50 -11
-46 -9 -100 -27 -100 -34 0 -4 11 -5 25 -2 14 2 25 1 25 -2 0 -6 -93 -222
-123 -286 -28 -61 -96 -151 -216 -289 l-65 -73 17 -29 c9 -16 12 -29 7 -29 -6
0 -10 4 -10 9 0 5 -10 11 -21 14 -16 4 -31 -4 -56 -30 -19 -19 -32 -38 -28
-41 3 -4 10 0 15 8 6 10 9 5 12 -16 2 -18 8 -28 17 -26 19 4 41 -17 34 -33 -2
-8 -9 -13 -15 -12 -6 1 -12 -6 -13 -15 -2 -10 2 -16 8 -15 6 1 11 -7 12 -18 0
-11 4 -25 8 -32 4 -7 0 -16 -10 -23 -15 -9 -13 -10 12 -8 26 3 30 0 27 -21 -1
-14 2 -27 7 -30 5 -4 11 -13 13 -21 2 -8 10 -21 18 -28 13 -11 12 -12 -8 -7
-24 7 -24 8 5 -44 2 -2 10 2 20 10 9 8 14 9 10 3 -3 -6 5 -16 18 -22 30 -14
30 -18 6 -58 -18 -29 -18 -31 -1 -41 20 -13 22 -40 3 -47 -7 -3 -13 -1 -13 4
0 6 -5 10 -11 10 -8 0 -7 -5 2 -16 8 -9 21 -13 35 -10 14 4 24 1 28 -9 3 -8 2
-15 -3 -15 -13 0 1 -54 17 -64 12 -7 12 -10 1 -17 -8 -5 -16 -3 -21 4 -15 24
-18 -1 -3 -29 8 -16 15 -26 16 -21 1 4 2 12 3 19 0 6 7 13 15 16 8 3 11 0 7
-7 -4 -6 0 -18 8 -27 15 -14 16 -14 16 0 0 12 10 16 39 16 22 0 41 -5 43 -11
2 -5 11 -7 22 -3 15 6 17 14 12 47 -6 34 -5 38 8 28 10 -8 16 -9 21 -1 3 5 13
10 20 10 22 0 54 31 48 46 -3 8 -11 14 -18 14 -7 0 -16 11 -19 25 -4 14 -11
25 -16 25 -6 0 -10 7 -10 15 0 8 -8 15 -17 15 -13 0 -14 3 -5 12 8 8 -1 23
-38 60 -28 27 -50 56 -50 64 0 8 -4 14 -10 14 -5 0 -14 15 -19 33 -5 17 -10
26 -10 20 -1 -7 -5 -13 -10 -13 -5 0 -7 9 -4 21 4 13 -3 30 -19 47 -23 25 -53
82 -43 82 6 0 177 -229 195 -261 8 -15 28 -40 44 -56 34 -33 96 -138 96 -162
0 -16 -7 -18 -71 -22 -25 -2 -29 -4 -17 -13 18 -14 12 -37 -8 -29 -8 3 -14 0
-14 -6 0 -6 5 -11 11 -11 8 0 8 -5 -1 -15 -14 -17 -45 -21 -35 -5 8 13 -4 13
-44 -1 -17 -6 -31 -18 -31 -26 0 -8 -4 -11 -10 -8 -6 3 -7 -1 -4 -9 3 -9 1
-16 -5 -16 -6 0 -11 -4 -11 -10 0 -7 315 -10 925 -10 l925 0 0 2560 0 2560
-2501 0 c-2378 0 -2501 -1 -2495 -17 5 -16 4 -16 -8 1 -14 18 -16 17 -41 -10
l-27 -29 7 26 c5 19 2 26 -8 26 -9 0 -12 -7 -9 -19z m588 -154 c-6 -14 -4 -15
10 -3 14 11 15 10 12 -7 -2 -13 2 -18 15 -16 22 4 21 0 -3 -28 -16 -18 -20
-20 -20 -7 0 10 -4 17 -10 17 -5 0 -7 -7 -4 -15 4 -8 1 -15 -5 -15 -6 0 -11 7
-11 15 0 8 -6 15 -14 15 -22 0 -38 24 -24 38 16 16 31 15 23 0 -3 -7 0 -5 7 5
16 22 32 22 24 1z m54 1 c0 -8 -4 -15 -10 -15 -5 0 -10 7 -10 15 0 8 5 15 10
15 6 0 10 -7 10 -15z m-134 -87 c3 -11 3 -22 0 -25 -3 -4 -6 0 -6 7 0 7 -8 22
-17 32 -15 17 -15 18 0 13 9 -4 19 -16 23 -27z m24 22 c0 -5 -2 -10 -4 -10 -3
0 -8 5 -11 10 -3 6 -1 10 4 10 6 0 11 -4 11 -10z m36 -35 c-16 -16 -30 -20
-22 -6 4 5 0 12 -6 14 -7 3 0 6 15 6 25 1 27 -1 13 -14z m4071 -460 c0 -8 -4
-15 -9 -15 -10 0 -11 14 -1 23 9 10 10 9 10 -8z m-497 -305 c8 -5 11 -12 8
-16 -4 -3 -14 1 -23 10 -18 17 -9 21 15 6z m-54 -62 l19 -21 -27 18 c-29 18
-34 25 -20 25 5 0 17 -10 28 -22z m-2820 -494 c-4 -9 -9 -15 -11 -12 -3 3 -3
13 1 22 4 9 9 15 11 12 3 -3 3 -13 -1 -22z m-7 -60 c-13 -14 -25 -20 -27 -14
-2 6 4 18 14 25 31 24 39 17 13 -11z m8 -88 c-8 -8 -17 -12 -21 -9 -3 3 2 12
12 19 22 16 29 9 9 -10z m117 -11 c-3 -7 -12 -11 -20 -8 -17 6 -18 20 -1 26
18 6 27 -1 21 -18z m-230 -155 c14 -5 26 -17 26 -26 0 -9 7 -22 16 -29 9 -6
15 -18 12 -25 -3 -10 -7 -10 -19 1 -26 25 -53 36 -76 33 -27 -4 -29 4 -7 34
18 26 15 25 48 12z m91 -98 c-3 -3 -11 0 -18 7 -9 10 -8 11 6 5 10 -3 15 -9
12 -12z m505 -62 c0 -5 -4 -10 -10 -10 -5 0 -10 5 -10 10 0 6 5 10 10 10 6 0
10 -4 10 -10z m-710 -85 c0 -7 -12 -23 -27 -35 -25 -19 -26 -20 -5 -15 13 4
22 2 22 -4 0 -6 -4 -11 -9 -11 -5 0 -11 -6 -14 -14 -4 -10 1 -12 16 -9 18 4
19 3 7 -6 -13 -9 -12 -11 5 -11 15 -1 11 -6 -15 -19 -19 -9 -40 -16 -46 -13
-22 7 -14 70 12 97 13 14 24 32 24 39 0 7 3 16 6 19 10 9 24 -2 24 -18z m463
-5 c-6 -24 -19 -34 -33 -25 -8 5 23 42 37 45 0 0 -1 -9 -4 -20z m-39 -54 c-10
-27 -24 -18 -24 15 0 27 2 29 15 15 8 -8 12 -22 9 -30z m81 -7 c5 -15 2 -25
-8 -31 -12 -6 -14 -15 -8 -30 5 -15 3 -27 -8 -40 -18 -21 -35 -24 -28 -4 4 10
0 12 -16 8 -12 -2 -28 -9 -34 -15 -7 -5 -13 -6 -13 -2 0 4 -6 2 -14 -4 -10 -9
-16 -8 -26 4 -13 15 -4 19 40 16 10 0 11 1 3 5 -22 9 -15 31 24 73 41 46 77
54 88 20z m61 -178 c1 -6 3 -12 4 -13 1 -2 3 -14 4 -28 1 -14 6 -31 11 -39 5
-9 5 -16 -2 -18 -5 -2 -8 -14 -6 -27 4 -18 0 -26 -16 -31 -13 -4 -18 -11 -14
-21 3 -10 8 -12 12 -5 4 6 12 7 21 1 12 -7 9 -15 -15 -41 -17 -18 -24 -29 -16
-24 8 4 17 2 23 -6 8 -11 9 -10 4 4 -3 11 0 17 10 17 8 0 12 5 9 10 -3 6 -1
10 4 10 6 0 11 -6 11 -12 0 -9 4 -8 10 2 6 10 10 11 10 3 0 -7 5 -13 10 -13 6
0 10 7 10 16 0 11 5 14 16 10 11 -4 15 -2 11 8 -3 8 -3 17 1 20 9 10 13 48 4
42 -5 -3 -15 4 -22 15 -8 10 -24 19 -36 19 -21 0 -41 27 -29 38 3 3 5 1 5 -4
0 -14 52 -16 60 -3 9 13 78 -68 147 -171 71 -107 83 -128 83 -143 0 -8 9 -24
20 -37 11 -13 20 -31 20 -40 0 -10 -9 -46 -20 -80 -26 -80 -25 -151 1 -220 27
-71 68 -113 151 -153 63 -30 83 -47 57 -47 -20 0 -61 -52 -56 -71 4 -14 -2
-20 -28 -25 -18 -3 -43 -4 -56 -2 -14 2 -32 -5 -45 -18 -15 -16 -30 -21 -52
-18 -19 2 -32 -1 -32 -7 0 -8 -5 -8 -15 1 -11 10 -19 8 -39 -8 -14 -11 -22
-22 -19 -26 4 -4 8 -22 8 -41 1 -25 -2 -32 -13 -27 -11 4 -14 1 -9 -11 3 -9 2
-17 -3 -17 -6 0 -10 7 -10 15 0 13 -3 14 -14 3 -13 -11 -13 -15 1 -25 9 -7 20
-10 25 -7 4 3 15 -1 23 -10 9 -9 11 -17 5 -21 -5 -3 -10 -16 -10 -27 0 -20 1
-21 20 -3 20 18 20 17 20 -18 0 -28 4 -37 18 -38 15 -1 16 -2 0 -6 -10 -2 -15
-10 -11 -19 6 -17 -8 -19 -25 -2 -9 9 -12 9 -12 1 0 -7 4 -14 9 -17 14 -9 19
-55 7 -59 -6 -2 -17 3 -25 10 -8 8 -22 13 -31 10 -13 -3 -16 0 -12 16 3 14 1
18 -6 13 -7 -4 -12 -16 -12 -27 0 -10 -5 -19 -11 -19 -6 0 -8 9 -4 23 5 16 4
18 -3 8 -9 -12 -13 -11 -28 4 -17 17 -17 17 4 11 16 -6 22 -3 22 8 0 9 -4 16
-10 16 -5 0 -10 14 -10 30 0 17 5 30 10 30 6 0 10 8 10 18 0 15 2 15 11 2 8
-11 9 -9 3 10 -4 14 -10 26 -15 28 -4 2 -6 9 -3 17 3 7 0 16 -6 20 -8 5 -5 12
7 22 10 8 12 12 6 8 -7 -3 -13 -1 -13 5 0 6 14 13 30 17 30 5 38 17 21 28 -5
3 -12 1 -16 -5 -9 -15 -35 -12 -35 4 0 8 -6 18 -12 22 -7 4 -10 4 -6 -1 4 -4
3 -17 -3 -28 -8 -14 -8 -18 0 -13 6 4 11 2 11 -3 0 -14 -27 -14 -35 -1 -3 6
-3 16 2 23 13 22 11 33 -7 33 -10 0 -16 -4 -14 -8 5 -8 -11 -12 -30 -9 -5 1
-6 -7 -4 -17 3 -11 0 -19 -8 -19 -9 0 -12 8 -8 26 4 20 3 23 -5 11 -10 -13
-12 -13 -21 0 -8 13 -10 13 -10 -1 0 -23 25 -70 33 -62 4 3 7 -1 7 -10 0 -21
-5 -21 -34 -2 -12 8 -35 16 -50 17 -15 1 -32 11 -38 22 -9 16 -7 18 6 13 10
-4 16 -1 16 8 0 8 -8 15 -18 15 -30 0 -34 13 -10 32 13 11 17 17 8 16 -8 -2
-20 -10 -27 -18 -18 -23 -24 -7 -12 29 14 41 8 47 -22 22 -13 -11 -20 -23 -16
-27 4 -5 12 -2 17 6 6 8 10 11 10 5 0 -17 -19 -40 -26 -32 -10 10 -13 67 -3
61 4 -2 13 4 18 15 14 25 14 42 0 19 -12 -21 -35 -23 -42 -4 -4 10 0 12 15 8
14 -3 19 -1 14 6 -5 8 4 12 26 14 29 1 27 2 -12 8 -45 6 -45 6 -17 18 34 15
35 21 1 14 -20 -4 -25 -2 -19 8 4 7 2 16 -5 20 -11 7 -11 15 -2 42 l12 33 -5
-32 c-6 -40 0 -41 20 -5 15 26 16 26 9 2 l-6 -25 16 22 c9 12 13 28 10 37 -4
9 -1 16 6 16 7 0 10 7 6 16 -3 8 -2 12 4 9 6 -3 10 -1 10 4 0 6 -7 11 -16 11
-11 0 -14 6 -9 21 5 15 4 19 -4 15 -6 -4 -11 -1 -11 8 0 19 23 33 28 18 5 -17
22 -15 22 2 0 8 6 17 13 20 6 3 2 3 -10 0 -17 -4 -23 -1 -24 13 0 12 -2 14 -6
4 -5 -11 -7 -11 -14 0 -8 12 -11 11 -19 -1 -5 -8 -7 -22 -4 -30 4 -12 3 -13
-7 -2 -16 15 -46 16 -55 0 -5 -8 -2 -9 9 -5 17 6 19 2 20 -40 0 -12 6 -24 13
-27 8 -3 14 1 14 9 0 20 16 19 24 0 3 -9 -1 -18 -9 -21 -7 -3 -11 -12 -8 -20
7 -20 0 -17 -31 11 -14 13 -33 22 -41 19 -8 -4 -13 -9 -11 -13 2 -3 -2 -12
-10 -19 -12 -11 -15 -11 -20 1 -3 8 -4 20 -2 28 2 9 -5 14 -19 13 -12 -1 -24
5 -28 13 -3 11 -1 13 10 9 21 -8 19 16 -4 43 -13 15 -20 18 -23 9 -3 -7 -5 2
-5 20 0 19 -4 37 -9 40 -5 4 -10 15 -12 25 -3 16 0 17 17 7 17 -9 20 -8 15 5
-4 8 -11 15 -16 15 -10 0 -8 17 7 53 4 10 3 17 -5 17 -6 0 -8 -4 -5 -10 3 -5
-1 -10 -10 -10 -11 0 -14 6 -9 25 4 16 2 25 -6 25 -6 0 -8 5 -5 10 10 15 23
12 28 -7 2 -10 4 -4 3 14 -1 29 -3 31 -31 26 -16 -4 -42 -20 -58 -36 -15 -16
-33 -27 -41 -24 -8 3 -16 1 -18 -5 -3 -7 -10 -5 -20 5 -11 12 -15 29 -11 64 2
26 8 50 14 51 5 2 7 7 4 12 -3 4 6 15 20 24 25 17 25 17 5 38 -15 17 -18 30
-14 67 4 36 -1 59 -20 101 -32 71 -36 109 -14 124 14 8 21 6 36 -9 17 -19 34
-51 36 -67 1 -5 15 -22 31 -40 17 -17 31 -43 31 -57 1 -14 5 -43 9 -65 6 -28
4 -41 -6 -48 -10 -7 -11 -11 -2 -14 7 -3 9 -12 6 -20 -4 -12 0 -13 21 -4 14 5
26 7 26 4 0 -4 6 -1 14 5 7 6 11 21 9 34 -3 14 2 29 11 36 20 17 20 27 2 34
-11 4 -13 1 -9 -11 4 -13 2 -12 -9 3 -9 11 -18 36 -21 55 -21 118 -22 107 19
146 22 22 40 32 42 26 2 -7 10 -12 17 -12 14 0 27 -60 15 -75 -13 -18 -8 -43
9 -37 10 4 11 7 3 10 -19 6 -14 18 15 31 22 10 24 14 12 22 -7 5 -9 9 -3 9 6
0 14 -3 18 -7 11 -11 51 -11 58 1 5 7 8 4 8 -6 0 -16 13 -22 48 -21 6 1 12 -4
12 -11 0 -6 5 -4 10 4 8 11 9 7 4 -14 -5 -22 -4 -27 6 -21 7 4 16 2 22 -6 6
-10 7 -7 3 10 -5 15 -3 21 3 17 6 -3 13 -2 17 4 4 6 11 7 17 4 7 -4 8 -2 4 5
-4 6 -2 19 6 28 10 13 10 15 0 9 -8 -5 -20 1 -33 15 -22 25 -23 33 -9 60 8 13
7 19 0 19 -6 0 -9 4 -5 10 7 12 50 -3 51 -19z m-76 9 c0 -5 -2 -10 -4 -10 -3
0 -8 5 -11 10 -3 6 -1 10 4 10 6 0 11 -4 11 -10z m120 -16 c0 -2 -9 -4 -21 -4
-11 0 -18 4 -14 10 5 8 35 3 35 -6z m-100 -54 c0 -5 -4 -10 -9 -10 -6 0 -13 5
-16 10 -3 6 1 10 9 10 9 0 16 -4 16 -10z m-66 -26 c5 -14 4 -15 -9 -4 -17 14
-19 20 -6 20 5 0 12 -7 15 -16z m836 -124 c0 -5 -9 -6 -20 -3 -11 3 -20 9 -20
13 0 5 9 6 20 3 11 -3 20 -9 20 -13z m-316 -62 c-5 -8 -2 -9 9 -5 12 5 17 1
17 -13 0 -24 -25 -27 -34 -4 -6 15 0 34 10 34 3 0 2 -5 -2 -12z m-914 -83 c0
-5 -5 -3 -10 5 -5 8 -10 20 -10 25 0 6 5 3 10 -5 5 -8 10 -19 10 -25z m1258
19 c12 -4 22 -11 22 -16 0 -5 -10 -6 -22 -2 -13 4 -54 8 -91 9 -37 2 -71 5
-74 9 -8 8 135 8 165 0z m132 -54 c18 -18 19 -22 6 -43 -13 -18 -13 -27 -3
-47 11 -21 20 -25 52 -24 36 0 40 2 38 25 -2 23 -2 23 9 -3 7 -16 16 -28 21
-28 4 0 5 5 2 10 -3 6 1 10 10 10 10 0 13 5 9 12 -4 6 12 0 37 -13 55 -30 92
-84 84 -119 -7 -28 -43 -70 -59 -70 -17 0 -38 -38 -24 -42 17 -6 -46 -69 -70
-71 -12 -1 -22 -5 -22 -10 0 -5 -12 -7 -27 -4 -29 5 -63 -17 -40 -27 8 -3 2
-14 -18 -31 -28 -24 -35 -26 -95 -21 -56 5 -67 3 -87 -16 -13 -12 -23 -17 -23
-12 0 5 -5 2 -10 -6 -7 -11 -10 -11 -10 -2 0 7 -5 10 -10 7 -6 -4 -40 3 -76
15 -36 11 -75 18 -86 14 -14 -4 -19 -2 -16 6 2 7 -19 34 -47 61 l-50 48 0 103
c0 95 2 107 28 150 36 63 62 76 90 50 12 -11 32 -23 45 -27 12 -3 22 -11 22
-17 0 -6 12 -8 28 -5 21 4 33 0 45 -14 10 -11 29 -19 45 -19 15 0 44 -3 65 -6
40 -7 43 -4 26 27 -13 25 12 59 43 59 28 0 20 51 -9 66 -17 8 -20 13 -11 22
19 19 66 14 88 -8z m-410 -22 c0 -11 -42 -10 -60 2 -13 9 -13 11 -1 19 15 10
61 -6 61 -21z m1298 -166 c3 -9 -3 -13 -19 -10 -12 1 -24 9 -27 16 -3 9 3 13
19 10 12 -1 24 -9 27 -16z m-293 -32 c3 -5 -1 -10 -10 -10 -9 0 -13 5 -10 10
3 6 8 10 10 10 2 0 7 -4 10 -10z m222 -36 c-3 -3 -12 -4 -19 -1 -8 3 -5 6 6 6
11 1 17 -2 13 -5z m43 -4 c0 -5 -4 -10 -10 -10 -5 0 -10 5 -10 10 0 6 5 10 10
10 6 0 10 -4 10 -10z m-2610 -63 c0 -7 -15 -27 -34 -43 -51 -46 -99 -129 -92
-159 4 -14 2 -25 -4 -25 -5 0 -10 -8 -10 -17 1 -17 1 -17 11 0 6 9 15 14 21
11 7 -5 9 -1 5 9 -4 11 -1 17 8 17 8 0 15 7 15 15 0 9 6 18 14 21 8 3 23 22
32 42 16 32 19 34 22 15 2 -12 -2 -31 -8 -42 -9 -17 -8 -21 5 -21 8 0 15 -4
15 -10 0 -5 -7 -7 -15 -4 -8 4 -15 1 -15 -5 0 -6 8 -11 17 -11 13 0 14 -3 5
-12 -17 -17 -15 -28 5 -21 11 4 14 3 9 -5 -12 -20 28 -14 52 8 21 20 58 28 47
11 -3 -5 2 -11 12 -13 16 -3 16 -4 0 -20 -21 -21 -5 -33 23 -18 11 6 20 9 20
6 0 -2 3 -11 6 -20 3 -9 1 -16 -6 -16 -6 0 -8 5 -5 10 3 6 -1 10 -9 10 -15 0
-38 -32 -42 -60 -2 -10 2 -9 12 4 14 20 14 20 29 0 18 -24 19 -34 3 -34 -9 0
-8 -4 2 -10 10 -6 11 -10 3 -10 -7 0 -13 -8 -13 -18 0 -22 29 -64 30 -43 0 20
13 5 15 -18 1 -13 -4 -17 -18 -13 -13 3 -18 1 -13 -6 3 -6 -2 -15 -12 -21 -9
-5 -18 -19 -19 -30 -2 -29 14 -26 21 4 4 14 10 25 15 25 11 0 9 -56 -2 -66 -3
-4 -3 -12 1 -18 11 -19 8 -41 -8 -48 -10 -4 -6 -7 12 -7 15 -1 30 -6 34 -13 4
-7 3 -8 -4 -4 -7 4 -12 2 -12 -4 0 -6 -13 -16 -30 -21 -16 -6 -30 -16 -30 -21
0 -7 4 -7 13 0 6 5 23 13 37 16 24 7 24 6 -2 -9 -32 -18 -35 -23 -12 -21 9 0
19 -5 21 -11 3 -7 -3 -13 -14 -14 -16 0 -16 -1 2 -9 26 -11 44 -12 27 -1 -11
7 -11 9 2 14 12 5 16 0 16 -16 0 -13 5 -28 12 -35 9 -9 8 -12 -5 -12 -23 0
-22 -20 1 -20 12 -1 8 -6 -12 -17 -26 -13 -27 -17 -12 -25 9 -5 14 -13 11 -19
-9 -14 29 -11 45 4 12 10 12 9 1 -5 -7 -10 -10 -18 -5 -19 5 0 -2 -5 -16 -11
-14 -6 -20 -12 -13 -15 7 -2 10 -10 7 -17 -3 -7 1 -26 7 -42 7 -16 13 -31 14
-34 1 -3 13 -29 28 -59 32 -65 33 -71 7 -41 -11 12 -17 27 -14 31 3 5 1 9 -4
9 -6 0 -19 18 -30 39 -12 22 -29 49 -39 61 -10 12 -28 34 -40 48 -13 15 -23
30 -23 34 0 4 -7 13 -15 21 -8 8 -16 21 -17 28 -2 7 -11 21 -20 31 -10 10 -18
25 -18 33 0 8 -4 15 -8 15 -9 0 -37 70 -34 83 1 4 -7 7 -17 7 -13 0 -33 22
-60 65 -23 35 -41 69 -41 74 0 5 -3 11 -8 13 -8 3 -177 284 -188 311 -9 24
190 217 223 217 7 0 13 4 13 9 0 9 20 17 48 20 6 0 12 -5 12 -12z m535 -87 c3
-5 1 -10 -4 -10 -6 0 -11 5 -11 10 0 6 2 10 4 10 3 0 8 -4 11 -10z m1 -37 c-8
-8 -36 5 -36 17 0 7 6 7 21 0 11 -7 18 -14 15 -17z m-376 -3 c0 -5 -4 -10 -10
-10 -5 0 -10 5 -10 10 0 6 5 10 10 10 6 0 10 -4 10 -10z m406 -6 c-5 -13 -1
-15 19 -10 20 5 25 3 25 -11 0 -15 -2 -16 -10 -3 -9 14 -14 7 -11 -13 1 -4 -8
-2 -19 5 -20 13 -26 29 -13 41 11 12 15 8 9 -9z m94 6 c0 -5 -7 -7 -15 -4 -8
4 -15 8 -15 10 0 2 7 4 15 4 8 0 15 -4 15 -10z m2438 3 c-1 -5 3 -18 10 -30
12 -22 11 -23 -21 -23 -34 0 -64 20 -50 33 3 4 15 7 25 7 10 0 18 5 18 10 0 6
5 10 10 10 6 0 9 -3 8 -7z m-3012 -42 c-4 -5 -1 -12 4 -14 6 -3 5 -4 -2 -3
-15 3 -23 26 -8 26 6 0 9 -4 6 -9z m-31 -11 c-3 -5 6 -13 22 -16 l27 -7 -25
-9 c-13 -5 -26 -10 -28 -11 -2 -1 -5 7 -7 17 -3 20 3 36 12 36 3 0 2 -4 -1
-10z m565 -4 c0 -3 -4 -8 -10 -11 -5 -3 -10 -1 -10 4 0 6 5 11 10 11 6 0 10
-2 10 -4z m30 -16 c0 -5 -4 -10 -10 -10 -5 0 -10 5 -10 10 0 6 5 10 10 10 6 0
10 -4 10 -10z m-515 -10 c3 -5 2 -10 -4 -10 -5 0 -13 5 -16 10 -3 6 -2 10 4
10 5 0 13 -4 16 -10z m2979 -58 c16 -31 34 -68 41 -82 7 -14 15 -38 17 -55 3
-16 3 -25 1 -18 -2 6 -16 10 -31 8 -15 -2 -22 -2 -15 1 7 3 9 12 6 20 -3 7 -9
11 -14 9 -4 -3 -18 4 -29 15 -11 11 -26 18 -31 14 -6 -4 -16 0 -21 7 -7 11
-11 11 -15 2 -10 -26 -25 -13 -20 17 5 24 3 28 -9 23 -14 -5 -14 -3 -3 15 7
11 19 18 26 15 9 -4 11 0 7 11 -8 20 22 56 45 56 9 0 28 -24 45 -58z m-2457
42 c-3 -3 -12 -4 -19 -1 -8 3 -5 6 6 6 11 1 17 -2 13 -5z m1059 -26 c4 -7 4
-10 -1 -6 -4 4 -14 3 -22 -4 -7 -6 -17 -8 -20 -4 -4 4 -1 11 7 16 20 13 27 12
36 -2z m-1076 -12 c0 -3 -4 -8 -10 -11 -5 -3 -10 -1 -10 4 0 6 5 11 10 11 6 0
10 -2 10 -4z m-105 -16 c3 -5 1 -10 -4 -10 -6 0 -11 5 -11 10 0 6 2 10 4 10 3
0 8 -4 11 -10z m135 -70 c0 -5 -5 -10 -11 -10 -5 0 -7 5 -4 10 3 6 8 10 11 10
2 0 4 -4 4 -10z m2305 0 c-3 -5 -13 -10 -21 -10 -8 0 -12 5 -9 10 3 6 13 10
21 10 8 0 12 -4 9 -10z m25 -31 c0 -5 -4 -9 -8 -9 -5 0 -9 7 -9 15 0 8 4 12 9
9 4 -3 8 -9 8 -15z m-90 -9 c0 -5 -5 -10 -11 -10 -5 0 -7 5 -4 10 3 6 8 10 11
10 2 0 4 -4 4 -10z m-50 -34 c0 -3 -4 -8 -10 -11 -5 -3 -10 -1 -10 4 0 6 5 11
10 11 6 0 10 -2 10 -4z m-2110 -56 c0 -7 -6 -6 -15 4 -8 8 -15 20 -15 26 0 7
6 6 15 -4 8 -8 15 -20 15 -26z m15 -30 c3 -6 -1 -7 -9 -4 -18 7 -21 14 -7 14
6 0 13 -4 16 -10z m195 -28 c0 -13 -12 -22 -22 -16 -10 6 -1 24 13 24 5 0 9
-4 9 -8z m2430 -22 c0 -5 -4 -10 -10 -10 -5 0 -10 5 -10 10 0 6 5 10 10 10 6
0 10 -4 10 -10z m-2556 -18 c3 -5 -1 -9 -9 -9 -8 0 -15 4 -15 9 0 4 4 8 9 8 6
0 12 -4 15 -8z m-644 -12 c0 -5 -8 -10 -17 -10 -15 0 -16 2 -3 10 19 12 20 12
20 0z m3224 -6 c4 -9 5 -19 2 -21 -6 -6 -46 20 -46 29 0 15 38 8 44 -8z m31
-94 c-3 -4 2 -13 10 -20 16 -13 20 -55 6 -64 -4 -3 -13 12 -20 33 -14 47 -14
74 -1 66 6 -4 8 -10 5 -15z m-3205 -4 c0 -3 -4 -8 -10 -11 -5 -3 -10 -1 -10 4
0 6 5 11 10 11 6 0 10 -2 10 -4z m837 -61 c0 -8 -4 -15 -9 -15 -4 0 -8 7 -8
15 0 8 4 15 8 15 5 0 9 -7 9 -15z m-27 -4 c0 -6 -4 -13 -10 -16 -5 -3 -10 1
-10 9 0 9 5 16 10 16 6 0 10 -4 10 -9z m2417 -53 c-3 -8 -6 -5 -6 6 -1 11 2
17 5 13 3 -3 4 -12 1 -19z m-1997 -158 c0 -5 -2 -10 -4 -10 -3 0 -8 5 -11 10
-3 6 -1 10 4 10 6 0 11 -4 11 -10z m-380 -64 c0 -3 -4 -8 -10 -11 -5 -3 -10
-1 -10 4 0 6 5 11 10 11 6 0 10 -2 10 -4z m3010 -96 c-7 -14 -7 -20 0 -20 5 0
10 4 10 9 0 4 11 6 24 4 17 -4 26 -14 30 -35 5 -25 10 -29 27 -25 15 4 19 2
15 -10 -3 -8 -6 -19 -6 -24 0 -5 -10 -9 -22 -9 -21 0 -20 -2 10 -30 l32 -29
-25 -17 c-14 -9 -25 -23 -25 -30 0 -8 -6 -14 -12 -15 -10 0 -10 -2 0 -6 7 -3
20 3 27 13 14 18 14 18 15 -3 0 -13 -5 -23 -11 -23 -5 0 -7 -4 -4 -10 3 -5 -1
-10 -9 -10 -9 0 -16 -8 -16 -19 0 -12 -12 -25 -30 -33 -32 -14 -37 -23 -17
-31 7 -4 6 -6 -5 -6 -9 -1 -18 5 -21 12 -2 6 -8 0 -12 -15 -4 -16 -11 -28 -16
-28 -5 0 -22 -13 -37 -30 -16 -16 -37 -30 -46 -30 -10 0 -14 -5 -11 -10 3 -6
2 -10 -4 -10 -5 0 -12 6 -14 13 -3 6 -6 0 -6 -15 -1 -26 -13 -34 -44 -29 -4 1
-19 -11 -33 -26 -14 -16 -31 -29 -38 -29 -6 -1 -17 -2 -24 -3 -7 0 -10 -5 -7
-11 3 -6 0 -10 -8 -10 -8 0 -17 -9 -20 -20 -3 -12 -14 -20 -25 -20 -11 0 -22
-7 -26 -15 -3 -8 -17 -20 -31 -27 -14 -6 -25 -18 -25 -25 0 -8 -5 -11 -11 -8
-6 4 -17 -1 -24 -11 -13 -17 -14 -17 -15 -3 0 9 -6 19 -14 22 -20 8 -35 118
-38 280 -2 104 0 137 10 137 6 0 11 3 11 8 -3 20 2 25 12 12 8 -12 12 -12 16
-2 5 13 51 37 66 34 4 -1 7 5 7 13 0 8 6 12 14 9 10 -4 12 2 9 20 -3 16 -1 26
6 26 6 0 11 -6 12 -12 0 -7 4 -4 9 7 5 12 9 14 9 6 1 -10 7 -7 20 7 10 12 26
22 35 22 18 0 21 11 5 27 -7 7 -2 10 17 7 17 -1 33 4 41 14 10 14 13 15 13 2
1 -9 5 -6 10 7 6 15 15 21 25 17 9 -4 15 -1 15 7 0 11 3 11 10 -1 8 -12 10
-12 11 5 l0 20 8 -20 c8 -19 8 -19 15 3 6 17 13 22 27 19 10 -3 16 -1 13 4 -3
5 3 12 12 16 10 4 19 2 22 -5 3 -9 10 -8 25 3 32 22 50 20 37 -5z m90 -23 c0
-5 -4 -5 -10 -2 -5 3 -10 14 -10 23 0 15 2 15 10 2 5 -8 10 -19 10 -23z
m-1830 -127 c12 -23 12 -24 -3 -11 -10 7 -17 10 -17 7 0 -4 -6 -1 -13 6 -8 7
-12 20 -9 30 5 20 20 9 42 -32z m-1006 -156 c4 -11 1 -14 -11 -12 -9 2 -18 9
-21 16 -6 18 25 15 32 -4z m986 -58 c0 -3 -4 -8 -10 -11 -5 -3 -10 -1 -10 4 0
6 5 11 10 11 6 0 10 -2 10 -4z m245 -195 c7 -12 -12 -24 -25 -16 -11 7 -4 25
10 25 5 0 11 -4 15 -9z m-35 -51 c0 -5 -2 -10 -4 -10 -3 0 -8 5 -11 10 -3 6
-1 10 4 10 6 0 11 -4 11 -10z m24 -28 c-8 -2 -14 -11 -14 -19 0 -9 -3 -14 -6
-10 -4 3 -4 18 0 32 5 21 9 23 20 13 12 -11 12 -13 0 -16z m66 18 c0 -5 -2
-10 -4 -10 -3 0 -8 5 -11 10 -3 6 -1 10 4 10 6 0 11 -4 11 -10z m280 -11 c0
-6 -4 -7 -10 -4 -5 3 -10 11 -10 16 0 6 5 7 10 4 6 -3 10 -11 10 -16z m-36
-23 c-10 -8 -21 -12 -24 -10 -5 6 21 24 34 24 6 0 1 -6 -10 -14z m-284 -27 c0
-5 -7 -9 -15 -9 -9 0 -15 9 -15 21 0 18 2 19 15 9 8 -7 15 -16 15 -21z m-150
1 c0 -5 -4 -10 -10 -10 -5 0 -10 5 -10 10 0 6 5 10 10 10 6 0 10 -4 10 -10z
m404 -25 c-7 -26 -64 -61 -64 -40 0 8 6 18 14 22 7 4 19 19 25 32 15 27 33 16
25 -14z m-294 -122 c0 -5 -5 -15 -10 -23 -8 -12 -10 -11 -10 8 0 12 5 22 10
22 6 0 10 -3 10 -7z"/>
<path d="M1015 2891 c-3 -5 -2 -12 3 -15 5 -3 9 1 9 9 0 17 -3 19 -12 6z"/>
<path d="M1455 2603 c16 -15 75 -43 91 -43 2 0 1 7 -2 15 -4 10 -13 13 -24 10
-11 -3 -22 0 -27 8 -4 8 -19 18 -33 22 -25 7 -25 7 -5 -12z"/>
<path d="M1676 2472 c-3 -5 1 -9 9 -9 8 0 12 4 9 9 -3 4 -7 8 -9 8 -2 0 -6 -4
-9 -8z"/>
<path d="M1183 2399 c-2 -23 3 -25 10 -4 4 8 3 16 -1 19 -4 3 -9 -4 -9 -15z"/>
<path d="M1407 2394 c-4 -4 -7 -14 -7 -23 0 -11 3 -12 11 -4 6 6 10 16 7 23
-2 6 -7 8 -11 4z"/>
<path d="M1376 2323 c-6 -14 -5 -15 5 -6 7 7 10 15 7 18 -3 3 -9 -2 -12 -12z"/>
<path d="M1266 2304 c-8 -20 -8 -24 2 -24 4 0 8 9 9 20 2 24 -3 26 -11 4z"/>
<path d="M1400 2316 c0 -2 7 -6 15 -10 8 -3 15 -1 15 4 0 6 -7 10 -15 10 -8 0
-15 -2 -15 -4z"/>
<path d="M1427 2267 c-3 -9 1 -18 9 -21 16 -6 18 2 5 22 -7 11 -9 11 -14 -1z"/>
<path d="M1390 2201 c0 -5 5 -13 10 -16 6 -3 10 -2 10 4 0 5 -4 13 -10 16 -5
3 -10 2 -10 -4z"/>
<path d="M1443 2177 c-4 -7 -9 -21 -10 -32 -3 -18 -2 -18 8 -2 12 21 29 22 29
1 0 -9 -5 -12 -11 -8 -7 4 -10 1 -7 -7 5 -15 58 -32 58 -18 0 5 -7 9 -15 9 -8
0 -15 5 -15 10 0 6 6 10 13 10 9 0 8 3 -2 9 -10 6 -10 10 -1 13 7 2 1 9 -14
16 -19 9 -27 8 -33 -1z"/>
<path d="M1300 2139 c0 -5 5 -7 10 -4 6 3 10 8 10 11 0 2 -4 4 -10 4 -5 0 -10
-5 -10 -11z"/>
<path d="M1414 2057 c0 -27 4 -32 23 -33 28 -2 28 0 6 37 -22 37 -28 37 -29
-4z"/>
<path d="M1440 2080 c0 -5 5 -10 11 -10 5 0 7 5 4 10 -3 6 -8 10 -11 10 -2 0
-4 -4 -4 -10z"/>
<path d="M1482 2075 c-11 -13 -9 -15 8 -15 11 0 20 7 20 15 0 19 -11 19 -28 0z"/>
<path d="M1300 2049 c0 -5 5 -7 10 -4 6 3 10 8 10 11 0 2 -4 4 -10 4 -5 0 -10
-5 -10 -11z"/>
<path d="M1367 2041 c-4 -17 -3 -21 5 -13 5 5 8 16 6 23 -3 8 -7 3 -11 -10z"/>
<path d="M1348 1983 c6 -2 18 -2 25 0 6 3 1 5 -13 5 -14 0 -19 -2 -12 -5z"/>
<path d="M1525 1960 c3 -5 8 -10 11 -10 2 0 4 5 4 10 0 6 -5 10 -11 10 -5 0
-7 -4 -4 -10z"/>
<path d="M1635 1819 c-4 -6 -5 -12 -2 -15 2 -3 7 2 10 11 7 17 1 20 -8 4z"/>
<path d="M1470 1800 c-13 -8 -12 -10 3 -10 9 0 17 5 17 10 0 12 -1 12 -20 0z"/>
<path d="M1534 1782 c3 -17 1 -22 -9 -18 -8 3 -17 1 -20 -4 -4 -6 3 -10 14
-10 26 0 35 16 21 37 -10 16 -11 15 -6 -5z"/>
<path d="M2115 1700 c-3 -5 -1 -10 4 -10 6 0 11 5 11 10 0 6 -2 10 -4 10 -3 0
-8 -4 -11 -10z"/>
<path d="M2000 1663 c0 -21 3 -24 9 -14 5 8 7 20 4 28 -8 21 -13 15 -13 -14z"/>
<path d="M1535 1669 c-4 -6 -5 -12 -2 -15 2 -3 7 2 10 11 7 17 1 20 -8 4z"/>
<path d="M1815 1670 c3 -5 8 -10 11 -10 2 0 4 5 4 10 0 6 -5 10 -11 10 -5 0
-7 -4 -4 -10z"/>
<path d="M1940 1653 c0 -15 2 -16 10 -3 9 13 11 13 20 0 8 -13 10 -12 10 3 0
10 -8 17 -20 17 -12 0 -20 -7 -20 -17z"/>
<path d="M1690 1619 c0 -5 5 -7 10 -4 6 3 10 8 10 11 0 2 -4 4 -10 4 -5 0 -10
-5 -10 -11z"/>
<path d="M1730 1620 c0 -5 5 -10 11 -10 5 0 7 5 4 10 -3 6 -8 10 -11 10 -2 0
-4 -4 -4 -10z"/>
<path d="M1822 1440 c0 -14 2 -19 5 -12 2 6 2 18 0 25 -3 6 -5 1 -5 -13z"/>
<path d="M1810 1400 c0 -5 6 -10 14 -10 8 0 18 5 21 10 3 6 -3 10 -14 10 -12
0 -21 -4 -21 -10z"/>
<path d="M1781 1355 c0 -11 4 -29 9 -40 l9 -20 0 20 c0 11 -4 29 -9 40 l-9 20
0 -20z"/>
<path d="M655 1693 c4 -10 11 -34 15 -53 5 -20 8 -26 9 -14 2 35 -11 84 -21
84 -6 0 -7 -8 -3 -17z"/>
<path d="M692 1535 c0 -32 33 -118 47 -123 9 -3 8 3 -3 20 -8 13 -17 33 -19
43 -2 11 -7 27 -10 35 -3 8 -8 22 -10 30 -4 10 -5 8 -5 -5z"/>
<path d="M746 1360 c7 -28 12 -35 18 -29 2 2 -2 15 -10 29 l-15 25 7 -25z"/>
<path d="M930 1180 c0 -5 4 -10 9 -10 6 0 13 5 16 10 3 6 -1 10 -9 10 -9 0
-16 -4 -16 -10z"/>
<path d="M3806 1691 c-19 -7 -19 -8 2 -13 15 -4 22 -2 22 8 0 8 -1 14 -2 13
-2 0 -12 -4 -22 -8z"/>
<path d="M4910 830 c0 -5 5 -10 11 -10 5 0 7 5 4 10 -3 6 -8 10 -11 10 -2 0
-4 -4 -4 -10z"/>
<path d="M4808 503 c7 -3 16 -2 19 1 4 3 -2 6 -13 5 -11 0 -14 -3 -6 -6z"/>
<path d="M3885 4220 c3 -5 11 -10 16 -10 6 0 7 5 4 10 -3 6 -11 10 -16 10 -6
0 -7 -4 -4 -10z"/>
<path d="M1554 4005 c-18 -13 -18 -14 4 -8 12 3 25 9 28 14 8 14 -10 11 -32
-6z"/>
<path d="M1509 3813 c-13 -16 -12 -17 4 -4 9 7 17 15 17 17 0 8 -8 3 -21 -13z"/>
<path d="M1475 3790 c-3 -5 -1 -10 4 -10 6 0 11 5 11 10 0 6 -2 10 -4 10 -3 0
-8 -4 -11 -10z"/>
<path d="M1535 3680 c-3 -5 -1 -10 4 -10 6 0 11 5 11 10 0 6 -2 10 -4 10 -3 0
-8 -4 -11 -10z"/>
<path d="M3477 3654 c-4 -4 -7 -14 -7 -22 0 -9 3 -12 7 -9 3 4 12 -1 19 -11
12 -16 13 -16 14 0 0 9 6 19 13 21 6 3 2 6 -10 6 -12 1 -23 6 -25 12 -2 5 -7
7 -11 3z"/>
<path d="M1380 3599 l-25 -21 28 17 c33 19 50 12 21 -10 -23 -18 -11 -19 33
-3 36 13 44 28 14 28 -11 0 -25 2 -33 5 -7 2 -24 -5 -38 -16z"/>
<path d="M3794 2266 c-6 -17 5 -114 26 -219 8 -38 18 -61 31 -68 16 -8 19 -6
19 11 0 11 -5 20 -11 20 -6 0 -8 9 -4 20 4 12 2 26 -3 33 -6 7 -17 56 -26 111
-16 104 -22 119 -32 92z"/>
<path d="M3552 2210 c0 -14 2 -19 5 -12 2 6 2 18 0 25 -3 6 -5 1 -5 -13z"/>
<path d="M3578 2083 c7 -3 16 -2 19 1 4 3 -2 6 -13 5 -11 0 -14 -3 -6 -6z"/>
<path d="M3578 2043 c7 -3 16 -2 19 1 4 3 -2 6 -13 5 -11 0 -14 -3 -6 -6z"/>
<path d="M3523 2002 c1 -14 5 -18 11 -12 7 7 6 14 -1 21 -9 9 -12 7 -10 -9z"/>
<path d="M3358 1503 c6 -2 18 -2 25 0 6 3 1 5 -13 5 -14 0 -19 -2 -12 -5z"/>
<path d="M2636 1194 c-6 -16 8 -33 26 -34 12 0 3 43 -9 47 -6 2 -13 -4 -17
-13z"/>
<path d="M1930 789 c0 -5 5 -7 10 -4 6 3 10 8 10 11 0 2 -4 4 -10 4 -5 0 -10
-5 -10 -11z"/>
<path d="M2733 563 l-82 -86 9 -66 c5 -36 16 -115 25 -176 9 -60 19 -138 22
-172 l6 -63 214 0 214 0 -12 22 c-12 23 -13 24 -57 75 -16 18 -35 45 -43 60
-8 16 -20 32 -26 36 -17 11 -53 86 -53 109 0 11 -4 16 -10 13 -6 -4 -10 8 -10
29 0 19 -7 41 -15 49 -13 13 -56 150 -72 230 -3 15 -10 27 -17 27 -6 -1 -48
-40 -93 -87z"/>
<path d="M2346 493 c-6 -14 -5 -15 5 -6 7 7 10 15 7 18 -3 3 -9 -2 -12 -12z"/>
<path d="M2556 415 c6 -33 4 -35 -19 -35 -16 0 -32 10 -44 25 -17 25 -20 25
-78 14 -33 -6 -68 -15 -77 -20 -10 -5 -27 -9 -38 -9 -16 0 -19 5 -15 23 5 18
2 22 -19 22 -18 0 -22 -3 -14 -12 12 -14 -6 -43 -26 -43 -6 0 -31 -29 -54 -64
-24 -35 -76 -99 -114 -143 -162 -180 -164 -171 48 -173 96 0 174 3 174 7 0 12
48 14 55 3 3 -6 40 -10 81 -10 60 0 74 3 74 15 0 9 11 27 24 40 13 13 29 38
35 56 6 18 20 38 30 45 19 13 18 16 -9 89 -26 70 -27 75 -9 75 24 0 33 -19 54
-115 33 -151 38 -216 14 -172 -14 24 -24 21 -25 -7 -2 -22 2 -24 42 -24 51 0
51 2 30 87 -8 31 -18 88 -22 126 -8 80 -34 162 -64 205 -29 40 -42 38 -34 -5z
m-142 -168 c9 -15 7 -22 -13 -38 -54 -44 -123 -2 -75 46 21 21 73 16 88 -8z"/>
<path d="M3130 382 c0 -5 7 -9 15 -9 8 0 15 4 15 9 0 4 -7 8 -15 8 -8 0 -15
-4 -15 -8z"/>
<path d="M1911 288 c-1 -21 18 -33 31 -20 6 6 6 12 -1 16 -6 4 -11 1 -12 -6 0
-7 -4 -4 -9 7 -7 16 -9 17 -9 3z"/>
<path d="M2003 249 c-2 -21 5 -23 26 -10 11 7 10 11 -6 19 -15 9 -19 7 -20 -9z"/>
<path d="M1876 244 c-5 -14 -4 -15 9 -4 17 14 19 20 6 20 -5 0 -12 -7 -15 -16z"/>
<path d="M1960 231 c0 -5 -6 -11 -12 -14 -7 -2 1 -2 17 0 l30 4 -25 -15 c-14
-9 -33 -15 -42 -16 -22 0 -22 2 1 -42 10 -21 21 -34 25 -31 3 3 1 12 -5 20
-12 13 -2 18 30 14 11 -2 11 0 0 12 -8 8 -21 13 -29 10 -8 -2 -4 2 10 9 33 16
41 30 28 45 -12 15 -28 17 -28 4z"/>
<path d="M1906 144 c-8 -21 -8 -21 12 -29 13 -5 14 -3 5 6 -6 6 -9 18 -6 25 3
8 3 14 0 14 -3 0 -8 -7 -11 -16z"/>
<path d="M1877 102 c3 -12 -4 -23 -21 -31 -14 -8 -23 -18 -19 -24 3 -5 0 -7
-8 -5 -8 3 -13 14 -12 24 1 10 0 13 -3 6 -3 -6 -10 -9 -16 -6 -6 4 -6 -2 1
-14 15 -28 14 -32 -9 -32 -11 0 -20 -4 -20 -8 0 -7 44 -8 90 -3 13 1 13 2 0
12 -11 8 -12 12 -2 16 6 2 12 12 12 20 0 10 6 14 20 10 11 -3 20 -1 20 4 0 5
-4 9 -10 9 -5 0 -10 9 -10 20 0 11 -4 20 -9 20 -5 0 -7 -8 -4 -18z"/>
</g>
</svg>
